<?xml version="1.0" encoding="UTF-8"?> <!-- Generator: Adobe Illustrator 22.1.0, SVG Export Plug-In . SVG Version: 6.00 Build 0) --> <svg xmlns="http://www.w3.org/2000/svg" xmlns:xlink="http://www.w3.org/1999/xlink" id="Capa_1" x="0px" y="0px" width="127px" height="127px" viewBox="0 0 127 127" style="enable-background:new 0 0 127 127;" xml:space="preserve"> <style type="text/css"> .st0{fill:#020203;} .st1{fill:#FFFFFF;} </style> <g> <path class="st0" d="M724.5,431.9c0,0.1,0,0.2-0.2,0.2h-0.6v5.9h0.6c0.1,0,0.2,0.1,0.2,0.2v0.3c0,0.1,0,0.2-0.1,0.2h-2.2 c-0.1,0-0.2-0.1-0.2-0.2V438c0-0.1,0-0.1,0.2-0.1h0.6V432h-0.7c-0.1,0-0.2,0-0.2-0.1v-0.3c0-0.1,0-0.2,0.1-0.2h2.2 c0.1,0,0.2,0.1,0.2,0.1V431.9z"></path> <path class="st0" d="M730.2,438.3c0,0.1-0.1,0.2-0.2,0.2h-0.5c-0.1,0-0.2-0.1-0.2-0.2v-2.9c0-0.7-0.2-1.3-1-1.3 c-0.5,0-1.1,0.3-1.4,0.6v3.6c0,0.1-0.1,0.2-0.2,0.2h-0.5c-0.1,0-0.2-0.1-0.2-0.2v-4.6c0-0.1,0.1-0.2,0.2-0.2h0.5 c0.1,0,0.2,0.1,0.2,0.2l0,0.3c0.5-0.4,1.1-0.6,1.7-0.6c1.2,0,1.7,0.7,1.7,1.9V438.3z"></path> <path class="st0" d="M734.6,431.2c0.1,0.1,0.1,0.1,0.1,0.3l-0.1,0.3c0,0.1-0.1,0.1-0.1,0.1c0,0-0.1,0-0.1,0 c-0.2-0.1-0.4-0.1-0.7-0.1c-0.7,0-0.9,0.5-0.9,1.3v0.5h1.3c0.1,0,0.2,0,0.2,0.1v0.4c0,0.1,0,0.1-0.1,0.1h-1.3v4.2 c0,0.1-0.1,0.2-0.2,0.2h-0.5c-0.1,0-0.2-0.1-0.2-0.2v-4.2h-0.6c-0.1,0-0.1,0-0.1-0.2v-0.3c0-0.1,0-0.1,0.1-0.1h0.6v-0.2 c0-0.4,0-0.6,0-0.8c0.1-0.9,0.7-1.4,1.6-1.4C734,431,734.3,431.1,734.6,431.2"></path> <path class="st0" d="M737.1,434.1c-1.1,0-1.5,1-1.5,1.9c0,1,0.3,2,1.4,2c1.1,0,1.5-1,1.5-1.9C738.5,435.1,738.2,434.1,737.1,434.1 M737.1,438.7c-1.6,0-2.3-1.1-2.3-2.6c0-1.5,0.8-2.6,2.4-2.6c1.6,0,2.3,1.1,2.3,2.6C739.5,437.5,738.6,438.7,737.1,438.7"></path> <path class="st0" d="M743.7,436.1c-0.3,0-0.6-0.2-0.6-0.6c0-0.4,0.3-0.6,0.6-0.6c0.3,0,0.6,0.2,0.6,0.6 C744.3,435.9,744,436.1,743.7,436.1"></path> <path class="st0" d="M751.6,435.7l-0.8-2.4c-0.1-0.4-0.2-0.6-0.2-0.7h0c-0.1,0.2-0.1,0.4-0.3,0.8l-0.9,2.4H751.6z M752.5,438.4 l-0.7-1.9h-2.7l-0.7,1.9c-0.1,0.1-0.1,0.2-0.2,0.2h-0.6c-0.1,0-0.1-0.1-0.1-0.2l2.6-6.8c0-0.1,0.1-0.1,0.2-0.1h0.6 c0.1,0,0.2,0,0.2,0.1l2.6,6.8c0,0.1,0,0.2-0.1,0.2h-0.6C752.6,438.5,752.6,438.5,752.5,438.4"></path> <path class="st0" d="M755.5,438.3c0,0.1-0.1,0.2-0.2,0.2h-0.5c-0.1,0-0.2-0.1-0.2-0.2v-4.6c0-0.1,0.1-0.2,0.2-0.2h0.5 c0.1,0,0.2,0.1,0.2,0.2V438.3z M755,432.8c-0.3,0-0.5-0.2-0.5-0.5c0-0.3,0.3-0.5,0.5-0.5c0.3,0,0.5,0.2,0.5,0.5 C755.6,432.6,755.3,432.8,755,432.8"></path> <path class="st0" d="M760.4,434.8c-0.2-0.4-0.7-0.7-1.2-0.7c-0.9,0-1.5,0.8-1.5,1.9c0,1.1,0.5,1.9,1.4,1.9c0.5,0,1.1-0.3,1.3-0.7 V434.8z M761.3,438.3c0,0.1-0.1,0.2-0.2,0.2h-0.4c-0.2,0-0.2-0.1-0.2-0.2l0-0.4c-0.3,0.4-0.9,0.7-1.5,0.7c-1.5,0-2.1-1.2-2.1-2.6 c0-1.5,0.9-2.7,2.3-2.7c0.5,0,1,0.2,1.4,0.6v-2.5c0-0.1,0-0.2,0.2-0.2c0.5-0.1,0.5-0.1,0.6-0.1c0.1,0,0.2,0.1,0.2,0.2V438.3z"></path> <path class="st0" d="M766.1,435.6v-0.1c0-0.7-0.4-1.3-1.2-1.3c-0.9,0-1.4,0.7-1.4,1.5H766.1z M767,435.9c0,0.2,0,0.3-0.3,0.3h-3.2 c0,1,0.6,1.8,1.6,1.8c0.4,0,0.9-0.1,1.2-0.2c0.1,0,0.2-0.1,0.2,0.1l0.1,0.4c0,0.1,0,0.1-0.1,0.2c-0.4,0.2-1.1,0.3-1.6,0.3 c-1.6,0-2.5-1.1-2.5-2.6c0-1.5,0.9-2.6,2.4-2.6c0.6,0,1.1,0.2,1.4,0.6c0.4,0.4,0.6,1,0.6,1.7V435.9z"></path> <path class="st0" d="M771.1,436.1c-0.3,0-0.6-0.2-0.6-0.6c0-0.4,0.3-0.6,0.6-0.6c0.3,0,0.6,0.2,0.6,0.6 C771.7,435.9,771.4,436.1,771.1,436.1"></path> <path class="st0" d="M777.2,432.1h-0.7v2.8h0.8c0.9,0,1.6-0.5,1.6-1.4C779,432.5,778.3,432.1,777.2,432.1 M777.6,435.6h-1v2.7 c0,0.1-0.1,0.2-0.2,0.2h-0.6c-0.1,0-0.2-0.1-0.2-0.2v-6.7c0-0.2,0.1-0.2,0.2-0.2h1.5c0.9,0,1.7,0.2,2.2,0.8 c0.3,0.3,0.4,0.8,0.4,1.4c0,1-0.6,1.7-1.5,2l0,0l1.7,2.8c0.1,0.1,0,0.2-0.1,0.2h-0.6c-0.2,0-0.2-0.1-0.3-0.2L777.6,435.6z"></path> <path class="st0" d="M784.3,435.6v-0.1c0-0.7-0.4-1.3-1.2-1.3c-0.9,0-1.4,0.7-1.4,1.5H784.3z M785.2,435.9c0,0.2,0,0.3-0.3,0.3 h-3.2c0,1,0.6,1.8,1.6,1.8c0.4,0,0.9-0.1,1.2-0.2c0.1,0,0.2-0.1,0.2,0.1l0.1,0.4c0,0.1,0,0.1-0.1,0.2c-0.5,0.2-1.1,0.3-1.6,0.3 c-1.6,0-2.5-1.1-2.5-2.6c0-1.5,0.9-2.6,2.4-2.6c0.6,0,1.1,0.2,1.4,0.6c0.4,0.4,0.6,1,0.6,1.7V435.9z"></path> <path class="st0" d="M789.9,438.4c-0.4,0.2-0.9,0.3-1.4,0.3c-1.6,0-2.4-1.1-2.4-2.6c0-1.5,0.9-2.6,2.5-2.6c0.4,0,1,0.1,1.3,0.3 c0.1,0,0.1,0.1,0.1,0.1c0,0,0,0.1,0,0.1l-0.1,0.3c0,0.1-0.1,0.1-0.1,0.1c0,0-0.1,0-0.1,0c-0.3-0.1-0.7-0.3-1.1-0.3 c-1,0-1.6,0.7-1.6,1.9c0,1.1,0.5,2,1.6,2c0.4,0,0.8-0.1,1.2-0.2c0,0,0.1,0,0.1,0c0.1,0,0.1,0,0.1,0.1l0.1,0.3c0,0,0,0.1,0,0.1 C790,438.3,790,438.3,789.9,438.4"></path> <path class="st0" d="M795.2,438.4c0,0.1,0,0.2-0.2,0.2h-0.5c-0.1,0-0.2-0.1-0.2-0.2v-2.9c0-0.7-0.2-1.3-1-1.3 c-0.5,0-1.1,0.3-1.4,0.6v3.6c0,0.1-0.1,0.2-0.2,0.2h-0.5c-0.1,0-0.2-0.1-0.2-0.2v-6.9c0-0.1,0.1-0.2,0.2-0.2 c0.4-0.1,0.5-0.1,0.5-0.1c0.1,0,0.2,0,0.2,0.2v2.7c0.5-0.4,1.1-0.6,1.7-0.6c1.2,0,1.6,0.7,1.6,1.9V438.4z"></path> <path class="st0" d="M800,435.6v-0.1c0-0.7-0.4-1.3-1.2-1.3c-0.9,0-1.4,0.7-1.4,1.5H800z M800.8,435.9c0,0.2,0,0.3-0.3,0.3h-3.2 c0,1,0.6,1.8,1.6,1.8c0.4,0,0.9-0.1,1.3-0.2c0.1,0,0.2-0.1,0.2,0.1l0.1,0.4c0,0.1,0,0.1-0.1,0.2c-0.4,0.2-1.1,0.3-1.6,0.3 c-1.6,0-2.5-1.1-2.5-2.6c0-1.5,0.9-2.6,2.4-2.6c0.6,0,1.1,0.2,1.4,0.6c0.4,0.4,0.6,1,0.6,1.7V435.9z"></path> <path class="st0" d="M802.8,433.7l0,0.4c0.2-0.3,0.6-0.7,1.2-0.7c0.1,0,0.2,0,0.3,0c0.1,0,0.1,0.1,0.1,0.2l-0.1,0.5 c0,0.1-0.1,0.1-0.1,0.1c-0.1,0-0.1,0-0.3,0c-0.4,0-0.8,0.2-1,0.6v3.5c0,0.1-0.1,0.2-0.2,0.2h-0.5c-0.1,0-0.2-0.1-0.2-0.2v-4.6 c0-0.2,0.1-0.2,0.2-0.2h0.4C802.8,433.5,802.8,433.6,802.8,433.7"></path> <path class="st0" d="M808.9,438.4c-0.4,0.2-0.9,0.3-1.4,0.3c-1.6,0-2.4-1.1-2.4-2.6c0-1.5,0.9-2.6,2.5-2.6c0.4,0,1,0.1,1.3,0.3 c0.1,0,0.1,0.1,0.1,0.1c0,0,0,0.1,0,0.1l-0.1,0.3c0,0.1-0.1,0.1-0.1,0.1c0,0-0.1,0-0.1,0c-0.3-0.1-0.7-0.3-1.1-0.3 c-1,0-1.6,0.7-1.6,1.9c0,1.1,0.5,2,1.6,2c0.4,0,0.8-0.1,1.2-0.2c0,0,0.1,0,0.1,0c0.1,0,0.1,0,0.1,0.1l0.1,0.3c0,0,0,0.1,0,0.1 C809,438.3,809,438.3,808.9,438.4"></path> <path class="st0" d="M814.2,438.4c0,0.1,0,0.2-0.2,0.2h-0.5c-0.1,0-0.2-0.1-0.2-0.2v-2.9c0-0.7-0.2-1.3-1-1.3 c-0.5,0-1.1,0.3-1.4,0.6v3.6c0,0.1,0,0.2-0.2,0.2h-0.5c-0.1,0-0.2-0.1-0.2-0.2v-6.9c0-0.1,0.1-0.2,0.2-0.2c0.4-0.1,0.5-0.1,0.5-0.1 c0.1,0,0.2,0,0.2,0.2v2.7c0.5-0.4,1.1-0.6,1.7-0.6c1.2,0,1.6,0.7,1.6,1.9V438.4z"></path> <path class="st0" d="M819,435.6v-0.1c0-0.7-0.4-1.3-1.2-1.3c-0.9,0-1.4,0.7-1.4,1.5H819z M819.8,435.9c0,0.2,0,0.3-0.3,0.3h-3.2 c0,1,0.6,1.8,1.6,1.8c0.4,0,0.9-0.1,1.3-0.2c0.1,0,0.2-0.1,0.2,0.1l0.1,0.4c0,0.1,0,0.1-0.1,0.2c-0.4,0.2-1.1,0.3-1.6,0.3 c-1.6,0-2.5-1.1-2.5-2.6c0-1.5,0.9-2.6,2.4-2.6c0.6,0,1.1,0.2,1.4,0.6c0.4,0.4,0.6,1,0.6,1.7V435.9z"></path> <path class="st0" d="M798.1,360.8c0,2.8-2.3,5-5,5c-2.8,0-5-2.3-5-5.1c0-2.8,2.3-5,5-5C795.8,355.8,798.1,358.1,798.1,360.8"></path> <path class="st0" d="M782.1,355.6c0.2-0.6-0.1-1.2-0.6-1.4c-4.6-2.2-9.1-4.9-13.5-7.9c-14.4-9.9-27.1-23.8-32.5-38.5 c-0.2-0.5-0.6-0.8-1.1-0.7l-11.7,0c-0.4,0-0.8,0.2-1,0.5c-0.2,0.3-0.2,0.7-0.1,1.1c6.3,14.1,16.4,26.1,29,34.8 c8.9,6.1,19.1,10.6,30,12.9C781.3,356.5,781.9,356.1,782.1,355.6"></path> <path class="st0" d="M779.8,362.4c0-0.6-0.4-1.2-1.1-1.3c-10.6-1.6-21.6-5.4-31.9-10.4c-0.3-0.1-0.6-0.2-0.9-0.1l-11.2,3.4 c-0.5,0.1-0.8,0.6-0.9,1.1c0,0.4,0.2,0.9,0.5,1.1c0.1,0,0.1,0.1,0.2,0.1c13.7,6.1,28.6,8.6,44.1,7.2 C779.3,363.6,779.7,363.1,779.8,362.4"></path> <path class="st0" d="M731.8,381.1l-0.2,1.7c0,0.4-0.3,0.5-0.8,0.5h-5v3.1h4.7c0.5,0,0.6,0.2,0.6,0.6v1.5c0,0.4-0.2,0.6-0.6,0.6 h-4.8v5.4c0,0.4-0.2,0.6-0.6,0.6h-2c-0.5,0-0.7-0.1-0.7-0.6v-13.2c0-0.4,0.2-0.6,0.5-0.6h8.3C731.7,380.6,731.8,380.8,731.8,381.1"></path> <path class="st0" d="M737.9,387.1c-1.5,0-2,1.3-2,2.9c0,1.5,0.4,2.9,2,2.9c1.5,0,2-1.4,2-2.9C739.8,388.4,739.4,387.1,737.9,387.1 M737.7,395.3c-3.5,0-5.2-2.3-5.2-5.4c0-3.1,1.9-5.3,5.3-5.3c3.5,0,5.2,2.3,5.2,5.4C743.1,393.1,741.1,395.3,737.7,395.3"></path> <path class="st0" d="M754.9,394.4c0,0.4-0.1,0.6-0.6,0.6h-1.9c-0.4,0-0.6-0.2-0.6-0.6v-5.5c0-0.9-0.2-1.5-1.2-1.5 c-0.7,0-1.5,0.3-2.1,0.8v6.2c0,0.4-0.2,0.6-0.6,0.6h-2c-0.4,0-0.6-0.2-0.6-0.6v-9c0-0.4,0.1-0.6,0.6-0.6h1.7c0.3,0,0.5,0.1,0.6,0.4 l0,0.4c1-0.8,2.1-1.2,3.3-1.2c2.3,0,3.3,1.4,3.3,3.7V394.4z"></path> <path class="st0" d="M764.1,387.8c-0.4-0.4-1-0.7-1.6-0.7c-1.5,0-2,1.6-2,2.9c0,1.3,0.4,2.8,1.9,2.8c0.6,0,1.4-0.4,1.7-0.8V387.8z M767.2,394.5c0,0.4-0.2,0.6-0.6,0.6h-1.8c-0.4,0-0.5-0.2-0.5-0.4l0-0.4c-0.5,0.6-1.6,1.1-2.6,1.1c-3,0-4.5-2.3-4.5-5.2 c0-2.8,1.5-5.6,4.6-5.6c0.9,0,1.8,0.3,2.3,0.8V381c0-0.4,0.1-0.6,0.5-0.6l2.2-0.3c0.3,0,0.4,0.2,0.4,0.5V394.5z"></path> <path class="st0" d="M776.3,387.9c-0.4-0.3-1.1-0.7-1.7-0.7c-1,0-2,0.8-2,2.8c0,1.3,0.3,2.8,1.9,2.8c0.8,0,1.5-0.6,1.8-0.9V387.9z M780.3,394.6c0,0.3-0.2,0.5-0.5,0.5h-1.1c-1.2,0-1.7-0.4-2-1h0c-0.6,0.6-1.9,1.2-2.9,1.2c-3,0-4.4-2.4-4.4-5.1 c0-3.7,2.3-5.6,4.6-5.6c1.2,0,2.1,0.5,2.5,1.2l0.1-0.5c0-0.2,0.2-0.4,0.5-0.4h1.9c0.3,0,0.5,0.2,0.5,0.5v7.2c0,0.2,0.1,0.4,0.3,0.4 h0.2c0.3,0,0.4,0.1,0.4,0.4V394.6z"></path> <path class="st0" d="M789,394.8c-0.8,0.4-1.7,0.5-2.7,0.5c-1.2,0-2.1-0.3-2.7-0.9c-0.7-0.8-0.7-1.6-0.7-3.4v-4h-0.8 c-0.5,0-0.6-0.1-0.6-0.7v-0.9c0-0.3,0.2-0.5,0.5-0.5h1v-2.2c0-0.4,0.3-0.5,0.6-0.5l2-0.2c0.3,0,0.5,0.2,0.5,0.5v2.4h2.3 c0.3,0,0.5,0.1,0.5,0.4v1.2c0,0.3-0.2,0.5-0.5,0.5h-2.3v4.1c0,1.1,0.1,1.8,1.1,1.8c0.5,0,0.9-0.1,1.3-0.2c0.1,0,0.2-0.1,0.3-0.1 c0.2,0,0.2,0.1,0.3,0.3l0.2,1.3c0,0.1,0,0.1,0,0.2C789.3,394.6,789.2,394.7,789,394.8"></path> <path class="st0" d="M794.6,394.5c0,0.4-0.2,0.6-0.6,0.6h-1.9c-0.4,0-0.6-0.1-0.6-0.6v-9c0-0.4,0.3-0.5,0.6-0.5h1.9 c0.4,0,0.6,0.1,0.6,0.5V394.5z M793,383.7c-0.8,0-1.7-0.6-1.7-1.6c0-1,0.8-1.6,1.7-1.6c0.8,0,1.7,0.6,1.7,1.6 C794.6,383.1,793.8,383.7,793,383.7"></path> <path class="st0" d="M802.2,387.1c-1.5,0-2,1.3-2,2.9c0,1.5,0.4,2.9,2,2.9c1.5,0,2-1.4,2-2.9C804.2,388.4,803.8,387.1,802.2,387.1 M802.1,395.3c-3.5,0-5.2-2.3-5.2-5.4c0-3.1,1.9-5.3,5.3-5.3c3.5,0,5.2,2.3,5.2,5.4C807.4,393.1,805.5,395.3,802.1,395.3"></path> <path class="st0" d="M819.3,394.4c0,0.4-0.1,0.6-0.6,0.6h-1.9c-0.4,0-0.6-0.2-0.6-0.6v-5.5c0-0.9-0.2-1.5-1.2-1.5 c-0.7,0-1.5,0.3-2.1,0.8v6.2c0,0.4-0.2,0.6-0.6,0.6h-2c-0.4,0-0.6-0.2-0.6-0.6v-9c0-0.4,0.1-0.6,0.6-0.6h1.7c0.3,0,0.5,0.1,0.6,0.4 l0,0.4c1-0.8,2.1-1.2,3.3-1.2c2.3,0,3.3,1.4,3.3,3.7V394.4z"></path> <path class="st0" d="M733.1,402.7l-0.6,1.8c-0.1,0.2-0.2,0.3-0.3,0.3c-0.1,0-0.2,0-0.3-0.1c-1.1-0.5-2-0.7-2.9-0.7 c-2.2,0-3.6,1.7-3.6,4.7c0,3.3,1.6,4.7,3.6,4.7c1,0,1.8-0.2,2.8-0.6c0.1,0,0.2-0.1,0.3-0.1c0.2,0,0.3,0.1,0.4,0.3l0.5,1.5 c0,0.1,0.1,0.2,0.1,0.3c0,0.2-0.1,0.4-0.4,0.5c-1.4,0.5-2.6,0.8-4.2,0.8c-4.4,0-6.7-2.9-6.7-7.4c0-4.5,2.7-7.6,6.9-7.6 c1.5,0,2.8,0.3,4,0.8c0.3,0.1,0.4,0.3,0.4,0.4C733.1,402.5,733.1,402.6,733.1,402.7"></path> <path class="st0" d="M741.1,408.8c-0.4-0.3-1.1-0.7-1.7-0.7c-1,0-2,0.8-2,2.8c0,1.3,0.3,2.8,1.9,2.8c0.8,0,1.5-0.6,1.8-0.9V408.8z M745.1,415.4c0,0.3-0.2,0.5-0.5,0.5h-1.1c-1.2,0-1.7-0.4-2-1h0c-0.6,0.6-1.9,1.2-2.9,1.2c-3,0-4.4-2.4-4.4-5.1 c0-3.7,2.3-5.6,4.6-5.6c1.2,0,2.1,0.5,2.5,1.2l0.1-0.5c0-0.2,0.2-0.4,0.5-0.4h1.9c0.3,0,0.5,0.2,0.5,0.5v7.2c0,0.2,0.1,0.4,0.3,0.4 h0.2c0.3,0,0.4,0.1,0.4,0.4V415.4z"></path> <path class="st0" d="M756.8,415.3c0,0.4-0.1,0.6-0.6,0.6h-1.9c-0.4,0-0.6-0.2-0.6-0.6v-5.5c0-0.9-0.2-1.5-1.2-1.5 c-0.7,0-1.5,0.3-2.1,0.8v6.2c0,0.4-0.2,0.6-0.6,0.6h-2c-0.4,0-0.6-0.2-0.6-0.6v-9c0-0.4,0.1-0.6,0.6-0.6h1.7c0.3,0,0.5,0.1,0.6,0.4 l0,0.4c1-0.8,2.1-1.2,3.3-1.2c2.3,0,3.3,1.4,3.3,3.7V415.3z"></path> <path class="st0" d="M767.2,415.5c-1.1,0.5-2,0.6-3.2,0.6c-3.2,0-5.1-1.9-5.1-5.2c0-3.4,2-5.5,5.3-5.5c1,0,1.9,0.1,2.9,0.6 c0.3,0.1,0.3,0.3,0.2,0.6l-0.3,1.5c0,0.2-0.1,0.3-0.3,0.3c-0.1,0-0.2,0-0.3-0.1c-0.6-0.2-1.2-0.4-1.8-0.4c-1.6,0-2.5,1.1-2.5,2.9 c0,1.9,0.9,2.9,2.4,2.9c0.9,0,1.3-0.1,2.1-0.4c0.1,0,0.1-0.1,0.2-0.1c0.2,0,0.2,0.1,0.3,0.3c0.1,0.4,0.4,1.3,0.4,1.7 C767.5,415.4,767.4,415.5,767.2,415.5"></path> <path class="st0" d="M775.8,409.7c0-0.9-0.5-1.8-1.6-1.8c-1,0-1.7,0.8-1.9,1.8H775.8z M778.9,411c0,0.5-0.2,0.6-0.8,0.6h-5.8 c0.3,1.3,1.4,2,2.7,2c0.9,0,1.8-0.2,2.6-0.5c0.1,0,0.2-0.1,0.3-0.1c0.2,0,0.3,0.1,0.3,0.3c0.1,0.4,0.4,1.3,0.4,1.6 c0,0.3-0.2,0.4-0.4,0.5c-1.1,0.5-2.6,0.7-3.8,0.7c-3.3,0-5.4-2-5.4-5.4c0-3.2,2.2-5.4,5.4-5.4c1.3,0,2.5,0.5,3.2,1.3 c1,1.1,1.3,2.5,1.3,4V411z"></path> <path class="st0" d="M784.2,409.1v6.2c0,0.4-0.2,0.6-0.6,0.6h-2c-0.4,0-0.6-0.2-0.6-0.6v-9c0-0.5,0.3-0.6,0.6-0.6h1.7 c0.4,0,0.6,0.1,0.6,0.4l0,0.6c0.7-0.9,1.4-1.3,2.6-1.3c0.2,0,0.4,0,0.6,0.1c0.3,0.1,0.3,0.3,0.2,0.5l-0.3,2c0,0.2-0.1,0.3-0.3,0.3 c-0.2,0-0.3-0.1-0.7-0.1C785.4,408.3,784.7,408.6,784.2,409.1"></path> </g> <g> <path class="st1" d="M90.8,64c0,2.8-2.3,5-5,5c-2.8,0-5-2.3-5-5.1c0-2.8,2.3-5,5-5C88.6,59,90.8,61.2,90.8,64"></path> <path class="st1" d="M74.9,58.7c0.2-0.6-0.1-1.2-0.6-1.4c-4.6-2.2-9.1-4.9-13.5-7.9C46.3,39.5,33.7,25.6,28.3,11 c-0.2-0.5-0.6-0.8-1.1-0.7l-11.7,0c-0.4,0-0.8,0.2-1,0.5c-0.2,0.3-0.2,0.7-0.1,1.1c6.3,14.1,16.4,26.1,29,34.8 c8.9,6.1,19.1,10.6,30,12.9C74.1,59.6,74.7,59.3,74.9,58.7"></path> <path class="st1" d="M72.5,65.6c0-0.6-0.4-1.2-1.1-1.3c-10.6-1.6-21.6-5.4-31.9-10.4c-0.3-0.1-0.6-0.2-0.9-0.1l-11.2,3.4 c-0.5,0.1-0.8,0.6-0.9,1.1c0,0.4,0.2,0.9,0.5,1.1c0.1,0,0.1,0.1,0.2,0.1c13.7,6.1,28.6,8.6,44.1,7.2C72,66.7,72.5,66.2,72.5,65.6"></path> <path class="st1" d="M24.6,84.2l-0.2,1.7c0,0.4-0.3,0.5-0.8,0.5h-5v3.1h4.7c0.5,0,0.6,0.2,0.6,0.6v1.5c0,0.4-0.2,0.6-0.6,0.6h-4.8 v5.4c0,0.4-0.2,0.6-0.6,0.6h-2c-0.5,0-0.7-0.1-0.7-0.6V84.3c0-0.4,0.2-0.6,0.5-0.6h8.3C24.5,83.8,24.6,84,24.6,84.2"></path> <path class="st1" d="M30.6,90.2c-1.5,0-2,1.3-2,2.9c0,1.5,0.4,2.9,2,2.9c1.5,0,2-1.4,2-2.9C32.6,91.6,32.2,90.2,30.6,90.2 M30.5,98.5c-3.5,0-5.2-2.3-5.2-5.4c0-3.1,1.9-5.3,5.3-5.3c3.5,0,5.2,2.3,5.2,5.4C35.8,96.2,33.9,98.5,30.5,98.5"></path> <path class="st1" d="M47.7,97.6c0,0.4-0.1,0.6-0.6,0.6h-1.9c-0.4,0-0.6-0.2-0.6-0.6V92c0-0.9-0.2-1.5-1.2-1.5 c-0.7,0-1.5,0.3-2.1,0.8v6.2c0,0.4-0.2,0.6-0.6,0.6h-2c-0.4,0-0.6-0.2-0.6-0.6v-9c0-0.4,0.1-0.6,0.6-0.6h1.7c0.3,0,0.5,0.1,0.6,0.4 l0,0.4c1-0.8,2.1-1.2,3.3-1.2c2.3,0,3.3,1.4,3.3,3.7V97.6z"></path> <path class="st1" d="M56.9,90.9c-0.4-0.4-1-0.7-1.6-0.7c-1.5,0-2,1.6-2,2.9c0,1.3,0.4,2.8,1.9,2.8c0.6,0,1.4-0.4,1.7-0.8V90.9z M60,97.6c0,0.4-0.2,0.6-0.6,0.6h-1.8c-0.4,0-0.5-0.2-0.5-0.4l0-0.4c-0.5,0.6-1.6,1.1-2.6,1.1c-3,0-4.5-2.3-4.5-5.2 c0-2.8,1.5-5.6,4.6-5.6c0.9,0,1.8,0.3,2.3,0.8v-4.4c0-0.4,0.1-0.6,0.5-0.6l2.2-0.3c0.3,0,0.4,0.2,0.4,0.5V97.6z"></path> <path class="st1" d="M69.1,91.1c-0.4-0.3-1.1-0.7-1.7-0.7c-1,0-2,0.8-2,2.8c0,1.3,0.3,2.8,1.9,2.8c0.8,0,1.5-0.6,1.8-0.9V91.1z M73.1,97.7c0,0.3-0.2,0.5-0.5,0.5h-1.1c-1.2,0-1.7-0.4-2-1h0c-0.6,0.6-1.9,1.2-2.9,1.2c-3,0-4.4-2.4-4.4-5.1 c0-3.7,2.3-5.6,4.6-5.6c1.2,0,2.1,0.5,2.5,1.2l0.1-0.5c0-0.2,0.2-0.4,0.5-0.4h1.9c0.3,0,0.5,0.2,0.5,0.5v7.2c0,0.2,0.1,0.4,0.3,0.4 h0.2c0.3,0,0.4,0.1,0.4,0.4V97.7z"></path> <path class="st1" d="M81.8,97.9c-0.8,0.4-1.7,0.5-2.7,0.5c-1.2,0-2.1-0.3-2.7-0.9c-0.7-0.8-0.7-1.6-0.7-3.4v-4h-0.8 c-0.5,0-0.6-0.1-0.6-0.7v-0.9c0-0.3,0.2-0.5,0.5-0.5h1v-2.2c0-0.4,0.3-0.5,0.6-0.5l2-0.2c0.3,0,0.5,0.2,0.5,0.5v2.4h2.3 c0.3,0,0.5,0.1,0.5,0.4v1.2c0,0.3-0.2,0.5-0.5,0.5h-2.3v4.1c0,1.1,0.1,1.8,1.1,1.8c0.5,0,0.9-0.1,1.3-0.2c0.1,0,0.2-0.1,0.3-0.1 c0.2,0,0.2,0.1,0.3,0.3l0.2,1.3c0,0.1,0,0.1,0,0.2C82.1,97.7,82,97.8,81.8,97.9"></path> <path class="st1" d="M87.3,97.6c0,0.4-0.2,0.6-0.6,0.6h-1.9c-0.4,0-0.6-0.1-0.6-0.6v-9c0-0.4,0.3-0.5,0.6-0.5h1.9 c0.4,0,0.6,0.1,0.6,0.5V97.6z M85.8,86.9c-0.8,0-1.7-0.6-1.7-1.6c0-1,0.8-1.6,1.7-1.6c0.8,0,1.7,0.6,1.7,1.6 C87.4,86.3,86.6,86.9,85.8,86.9"></path> <path class="st1" d="M95,90.2c-1.5,0-2,1.3-2,2.9c0,1.5,0.4,2.9,2,2.9c1.5,0,2-1.4,2-2.9C97,91.6,96.5,90.2,95,90.2 M94.9,98.5 c-3.5,0-5.2-2.3-5.2-5.4c0-3.1,1.9-5.3,5.3-5.3c3.5,0,5.2,2.3,5.2,5.4C100.2,96.2,98.3,98.5,94.9,98.5"></path> <path class="st1" d="M112.1,97.6c0,0.4-0.1,0.6-0.6,0.6h-1.9c-0.4,0-0.6-0.2-0.6-0.6V92c0-0.9-0.2-1.5-1.2-1.5 c-0.7,0-1.5,0.3-2.1,0.8v6.2c0,0.4-0.2,0.6-0.6,0.6h-2c-0.4,0-0.6-0.2-0.6-0.6v-9c0-0.4,0.1-0.6,0.6-0.6h1.7c0.3,0,0.5,0.1,0.6,0.4 l0,0.4c1-0.8,2.1-1.2,3.3-1.2c2.3,0,3.3,1.4,3.3,3.7V97.6z"></path> <path class="st1" d="M25.8,105.8l-0.6,1.8c-0.1,0.2-0.2,0.3-0.3,0.3c-0.1,0-0.2,0-0.3-0.1c-1.1-0.5-2-0.7-2.9-0.7 c-2.2,0-3.6,1.7-3.6,4.7c0,3.3,1.6,4.7,3.6,4.7c1,0,1.8-0.2,2.8-0.6c0.1,0,0.2-0.1,0.3-0.1c0.2,0,0.3,0.1,0.4,0.3l0.5,1.5 c0,0.1,0.1,0.2,0.1,0.3c0,0.2-0.1,0.4-0.4,0.5c-1.4,0.5-2.6,0.8-4.2,0.8c-4.4,0-6.7-2.9-6.7-7.4c0-4.5,2.7-7.6,6.9-7.6 c1.5,0,2.8,0.3,4,0.8c0.3,0.1,0.4,0.3,0.4,0.4C25.9,105.6,25.9,105.7,25.8,105.8"></path> <path class="st1" d="M33.8,111.9c-0.4-0.3-1.1-0.7-1.7-0.7c-1,0-2,0.8-2,2.8c0,1.3,0.3,2.8,1.9,2.8c0.8,0,1.5-0.6,1.8-0.9V111.9z M37.9,118.6c0,0.3-0.2,0.5-0.5,0.5h-1.1c-1.2,0-1.7-0.4-2-1h0c-0.6,0.6-1.9,1.2-2.9,1.2c-3,0-4.4-2.4-4.4-5.1 c0-3.7,2.3-5.6,4.6-5.6c1.2,0,2.1,0.5,2.5,1.2l0.1-0.5c0-0.2,0.2-0.4,0.5-0.4h1.9c0.3,0,0.5,0.2,0.5,0.5v7.2c0,0.2,0.1,0.4,0.3,0.4 h0.2c0.3,0,0.4,0.1,0.4,0.4V118.6z"></path> <path class="st1" d="M49.5,118.4c0,0.4-0.1,0.6-0.6,0.6H47c-0.4,0-0.6-0.2-0.6-0.6v-5.5c0-0.9-0.2-1.5-1.2-1.5 c-0.7,0-1.5,0.3-2.1,0.8v6.2c0,0.4-0.2,0.6-0.6,0.6h-2c-0.4,0-0.6-0.2-0.6-0.6v-9c0-0.4,0.1-0.6,0.6-0.6h1.7c0.3,0,0.5,0.1,0.6,0.4 l0,0.4c1-0.8,2.1-1.2,3.3-1.2c2.3,0,3.3,1.4,3.3,3.7V118.4z"></path> <path class="st1" d="M60,118.7c-1.1,0.5-2,0.6-3.2,0.6c-3.2,0-5.1-1.9-5.1-5.2c0-3.4,2-5.5,5.3-5.5c1,0,1.9,0.1,2.9,0.6 c0.3,0.1,0.3,0.3,0.2,0.6l-0.3,1.5c0,0.2-0.1,0.3-0.3,0.3c-0.1,0-0.2,0-0.3-0.1c-0.6-0.2-1.2-0.4-1.8-0.4c-1.6,0-2.5,1.1-2.5,2.9 c0,1.9,0.9,2.9,2.4,2.9c0.9,0,1.3-0.1,2.1-0.4c0.1,0,0.1-0.1,0.2-0.1c0.2,0,0.2,0.1,0.3,0.3c0.1,0.4,0.4,1.3,0.4,1.7 C60.3,118.6,60.1,118.6,60,118.7"></path> <path class="st1" d="M68.6,112.8c0-0.9-0.5-1.8-1.6-1.8c-1,0-1.7,0.8-1.9,1.8H68.6z M71.7,114.2c0,0.5-0.2,0.6-0.8,0.6h-5.8 c0.3,1.3,1.4,2,2.7,2c0.9,0,1.8-0.2,2.6-0.5c0.1,0,0.2-0.1,0.3-0.1c0.2,0,0.3,0.1,0.3,0.3c0.1,0.4,0.4,1.3,0.4,1.6 c0,0.3-0.2,0.4-0.4,0.5c-1.1,0.5-2.6,0.7-3.8,0.7c-3.3,0-5.4-2-5.4-5.4c0-3.2,2.2-5.4,5.4-5.4c1.3,0,2.5,0.5,3.2,1.3 c1,1.1,1.3,2.5,1.3,4V114.2z"></path> <path class="st1" d="M77,112.2v6.2c0,0.4-0.2,0.6-0.6,0.6h-2c-0.4,0-0.6-0.2-0.6-0.6v-9c0-0.5,0.3-0.6,0.6-0.6h1.7 c0.4,0,0.6,0.1,0.6,0.4l0,0.6c0.7-0.9,1.4-1.3,2.6-1.3c0.2,0,0.4,0,0.6,0.1c0.3,0.1,0.3,0.3,0.2,0.5l-0.3,2c0,0.2-0.1,0.3-0.3,0.3 c-0.2,0-0.3-0.1-0.7-0.1C78.2,111.4,77.5,111.7,77,112.2"></path> </g> </svg> 